<svg xmlns="http://www.w3.org/2000/svg" viewBox="0 0 120 120"><defs><style>.cls-1,.cls-2{fill:none;stroke:#f2453d;}.cls-1{stroke-width:4px;}.cls-2{stroke-width:5px;}</style></defs><title>bb</title><g id="Capa_2" data-name="Capa 2"><g id="Capa_1-2" data-name="Capa 1"><circle class="cls-1" cx="60" cy="60" r="58"/><path class="cls-2" d="M54.19,51.62H93.68c1.94,0,2.25.31,2.25,2.25V66.22c0,1.81-.35,2.16-2.14,2.16H54.15l2.78,7q1.95,5,3.91,9.89c.32.8.51,1.56-.3,2.15s-1.42.18-2.07-.32L25.09,61.47c-1.36-1-1.36-1.89,0-2.93L58.46,32.87c.64-.5,1.3-.88,2.07-.34s.63,1.35.32,2.14q-3.16,7.95-6.29,15.9C54.45,50.87,54.35,51.18,54.19,51.62Z"/></g></g></svg>