<svg xmlns="http://www.w3.org/2000/svg" viewBox="0 0 120 120"><defs><style>.cls-1,.cls-2{fill:none;stroke:#f2453d;}.cls-1{stroke-width:4px;}.cls-2{stroke-miterlimit:10;stroke-width:3px;}</style></defs><title>gb</title><g id="Capa_2" data-name="Capa 2"><g id="Capa_1-2" data-name="Capa 1"><circle class="cls-1" cx="60" cy="60" r="58"/><path class="cls-2" d="M30,44.12A31.27,31.27,0,0,1,39.23,32a32.48,32.48,0,0,1,13.47-6.9,33.4,33.4,0,0,1,26.45,4.06,32.79,32.79,0,0,1,4.4,3.22c.71.63.47.8,0,1.25-2.94,3-5.92,6-8.83,9.08-.4.42-.67.59-1.21.14C63.46,34.59,46.74,38.47,41.7,52.9c0,0-.06.07-.13.1C37.71,50.05,34.06,46.83,30,44.12Z"/><path class="cls-2" d="M41.63,66c2.11,5.51,5.57,9.83,10.89,12.4a22.09,22.09,0,0,0,9.53,2,23,23,0,0,0,11-3c3.66,3,7.33,5.85,11,8.8a30.25,30.25,0,0,1-18.42,8.59C51.4,96.2,40.11,90.86,32,78.85a15.36,15.36,0,0,1-2-3.78C33.87,72,37.73,69,41.63,66Z"/><path class="cls-2" d="M84.09,86c-3.75-2.92-7.51-5.8-11.27-8.72a17.18,17.18,0,0,0,6.85-9c.39-1.17.39-1.78-1.25-1.75-5.67.07-11.33,0-17,0a3.61,3.61,0,0,1-.38-.42V53.41c.14-.1.24-.24.38-.34C72,53,82.67,53,93.31,53c.8,0,1.08.27,1.18,1.06C96.3,66.36,93.41,77.21,84.09,86Z"/><path class="cls-2" d="M41,66.06Q35.28,70.53,29.54,75A34.8,34.8,0,0,1,26,57.53a33.54,33.54,0,0,1,2.71-12.06,3.66,3.66,0,0,1,.8-1.47c4,2.67,7.62,5.86,11.43,8.77A24.88,24.88,0,0,0,41,66.06Z"/><path class="cls-2" d="M62,53c-.36.3-.64.7-1,1A.88.88,0,0,1,62,53Z"/><path class="cls-2" d="M61,66a10.32,10.32,0,0,1,1,1C61.28,67,60.92,66.67,61,66Z"/></g></g></svg>