<svg xmlns="http://www.w3.org/2000/svg" viewBox="0 0 695.6 853.51"><defs><style>.cls-1,.cls-5,.cls-7{fill:#fff;}.cls-1,.cls-2,.cls-3,.cls-4,.cls-5,.cls-6{stroke:#000;stroke-miterlimit:10;}.cls-1{stroke-width:4px;}.cls-2{fill:#b3c1e5;}.cls-2,.cls-4,.cls-5,.cls-6{stroke-width:3px;}.cls-3{fill:#396294;stroke-width:5px;}.cls-4{fill:#5b595e;}</style></defs><title>medalla</title><g id="Capa_2" data-name="Capa 2"><g id="Capa_1-2" data-name="Capa 1"><path class="cls-1" d="M341.54,5.66,318.62,88a5,5,0,0,0,4.82,6.34h45.84A5,5,0,0,0,374.1,88L351.18,5.66A5,5,0,0,0,341.54,5.66Z"/><path class="cls-1" d="M192.41,34.68a3.05,3.05,0,0,1,1.18.77c1.25,1.3,2.26,2.94,3.39,4.34q4,5,8.42,9.58a159.82,159.82,0,0,0,23.53,20.32c14.69,10.37,30.78,17.63,47.89,23,8,2.49-5.87,22.91-8.36,26.1a61.34,61.34,0,0,1-27.21,19.76,56.71,56.71,0,0,1-20.48,3.4c-9.84-.23-13.76-12.4-17.4-19.87C191.28,97.2,186,69.53,185.68,42v-.43c0-.63,0-1.27,0-1.91C185.66,36.25,188.78,33.36,192.41,34.68Z"/><path class="cls-1" d="M501.53,34.68a3.05,3.05,0,0,0-1.18.77c-1.24,1.3-2.26,2.94-3.39,4.34q-4,5-8.42,9.58A159.23,159.23,0,0,1,465,69.69c-14.7,10.37-30.79,17.63-47.9,23-8,2.49,5.87,22.91,8.37,26.1A61.34,61.34,0,0,0,452.7,138.5a56.62,56.62,0,0,0,20.47,3.4c9.85-.23,13.76-12.4,17.4-19.87,12.09-24.83,17.37-52.5,17.69-80v-.43c0-.63,0-1.27,0-1.91C508.28,36.25,505.17,33.36,501.53,34.68Z"/><path class="cls-2" d="M27,275a139.41,139.41,0,0,0,6.83,36.6A159.34,159.34,0,0,0,58.1,357.52l84.14-37.68.47-38Z"/><path class="cls-2" d="M77,156.07A249.72,249.72,0,0,0,43.24,210a215.06,215.06,0,0,0-18,63.14l86.68,19.77,43.92-34.71Z"/><path class="cls-3" d="M188.46,275.3a568.53,568.53,0,0,1-53.59-52.81A495.28,495.28,0,0,1,72.1,134.31,265.76,265.76,0,0,0,99.9,213a311.26,311.26,0,0,0,39.54,56.8,196.73,196.73,0,0,1-59.09,7.32,190.25,190.25,0,0,1-68.21-14.4c7.83,7.22,27.8,23.62,61.47,31.54a167.94,167.94,0,0,0,54.82,3.48,127,127,0,0,1-25.7,30.2c-21.79,18.93-46.29,28.66-61.13,33.43A469.49,469.49,0,0,0,112,342.13a421.11,421.11,0,0,0,65.12-29.73Z"/><path class="cls-2" d="M668.64,275a139.41,139.41,0,0,1-6.83,36.6,159.34,159.34,0,0,1-24.31,45.91l-84.13-37.68-.47-38Z"/><path class="cls-2" d="M618.56,156.07A249.33,249.33,0,0,1,652.37,210a215.37,215.37,0,0,1,18,63.14l-86.69,19.77L539.8,258.18Z"/><path class="cls-3" d="M507.14,275.3a568.53,568.53,0,0,0,53.59-52.81,495.91,495.91,0,0,0,62.78-88.18A266.34,266.34,0,0,1,595.71,213a311.26,311.26,0,0,1-39.55,56.8,196.76,196.76,0,0,0,59.1,7.32,190.12,190.12,0,0,0,68.2-14.4c-7.82,7.22-27.8,23.62-61.46,31.54a168,168,0,0,1-54.83,3.48,127,127,0,0,0,25.7,30.2c21.79,18.93,46.3,28.66,61.14,33.43a469.9,469.9,0,0,1-70.44-19.22,421.11,421.11,0,0,1-65.12-29.73Z"/><path class="cls-1" d="M342.54,451.66,319.62,534a5,5,0,0,0,4.82,6.34h45.84A5,5,0,0,0,375.1,534l-22.92-82.35A5,5,0,0,0,342.54,451.66Z"/><path class="cls-2" d="M27,695a139.41,139.41,0,0,0,6.83,36.6A159.34,159.34,0,0,0,58.1,777.52l84.14-37.68.47-38Z"/><path class="cls-2" d="M77,576.07A249.72,249.72,0,0,0,43.24,630a215.06,215.06,0,0,0-18,63.14l86.68,19.77,43.92-34.71Z"/><path class="cls-3" d="M188.46,695.3a568.53,568.53,0,0,1-53.59-52.81A495.28,495.28,0,0,1,72.1,554.31,265.76,265.76,0,0,0,99.9,633a311.26,311.26,0,0,0,39.54,56.8,196.73,196.73,0,0,1-59.09,7.32,190.25,190.25,0,0,1-68.21-14.4c7.83,7.22,27.8,23.62,61.47,31.54a167.94,167.94,0,0,0,54.82,3.48,127,127,0,0,1-25.7,30.2c-21.79,18.93-46.29,28.66-61.13,33.43A469.49,469.49,0,0,0,112,762.13a421.11,421.11,0,0,0,65.12-29.73Z"/><path class="cls-2" d="M668.64,695a139.41,139.41,0,0,1-6.83,36.6,159.34,159.34,0,0,1-24.31,45.91l-84.13-37.68-.47-38Z"/><path class="cls-2" d="M618.56,576.07A249.33,249.33,0,0,1,652.37,630a215.37,215.37,0,0,1,18,63.14l-86.69,19.77L539.8,678.18Z"/><path class="cls-3" d="M507.14,695.3a568.53,568.53,0,0,0,53.59-52.81,495.91,495.91,0,0,0,62.78-88.18A266.34,266.34,0,0,1,595.71,633a311.26,311.26,0,0,1-39.55,56.8,196.76,196.76,0,0,0,59.1,7.32,190.12,190.12,0,0,0,68.2-14.4c-7.82,7.22-27.8,23.62-61.46,31.54a168,168,0,0,1-54.83,3.48,127,127,0,0,0,25.7,30.2c21.79,18.93,46.3,28.66,61.14,33.43a469.9,469.9,0,0,1-70.44-19.22,421.11,421.11,0,0,1-65.12-29.73Z"/><path class="cls-1" d="M193.41,480.68a3.05,3.05,0,0,1,1.18.77c1.25,1.3,2.26,2.94,3.39,4.34q4,4.95,8.42,9.58a159.82,159.82,0,0,0,23.53,20.32c14.69,10.37,30.78,17.63,47.89,22.95,8,2.49-5.87,22.91-8.36,26.1a61.34,61.34,0,0,1-27.21,19.76,56.71,56.71,0,0,1-20.48,3.4c-9.84-.23-13.76-12.4-17.4-19.87-12.09-24.83-17.36-52.5-17.69-80v-.43c0-.63,0-1.27,0-1.91C186.66,482.25,189.78,479.36,193.41,480.68Z"/><path class="cls-1" d="M502.53,480.68a3.05,3.05,0,0,0-1.18.77c-1.24,1.3-2.26,2.94-3.39,4.34q-4,4.95-8.42,9.58A159.23,159.23,0,0,1,466,515.69c-14.7,10.37-30.79,17.63-47.9,22.95-8,2.49,5.87,22.91,8.37,26.1A61.34,61.34,0,0,0,453.7,584.5a56.62,56.62,0,0,0,20.47,3.4c9.85-.23,13.76-12.4,17.4-19.87,12.09-24.83,17.37-52.5,17.69-80v-.43c0-.63,0-1.27,0-1.91C509.28,482.25,506.17,479.36,502.53,480.68Z"/><path class="cls-4" d="M499.89,765.21a23,23,0,0,1-9.53-4.19,55.14,55.14,0,0,0,19.83-6.75A66.89,66.89,0,0,0,528.36,739a37.37,37.37,0,0,1-26-13.73c-13.5-16.39-14.69-40-24.8-58.37C456,627.74,413.83,602.82,370,598.19a135.54,135.54,0,0,0-22.07-.55l-.79.06-.78-.06a135.69,135.69,0,0,0-22.08.55c-43.87,4.63-86.08,29.55-107.57,68.7-10.11,18.42-11.3,42-24.8,58.37a37.37,37.37,0,0,1-26,13.73A67,67,0,0,0,184,754.27,55.08,55.08,0,0,0,203.83,761a23,23,0,0,1-9.54,4.19,24.5,24.5,0,0,1-14-1.71,68.3,68.3,0,0,0,12.12,18.4,56.94,56.94,0,0,0,18.46,13.4,13.09,13.09,0,0,1-4.55,3,13.26,13.26,0,0,1-8.25.26c14.12,21.78,37.07,34.85,61.67,41.61,27.38,7.51,56.7,9.2,85.06,9.67v.06l2.27,0,2.27,0v-.06c28.37-.47,57.68-2.16,85.06-9.67,24.6-6.76,47.56-19.83,61.68-41.61a13.26,13.26,0,0,1-8.25-.26,13.09,13.09,0,0,1-4.55-3,56.94,56.94,0,0,0,18.46-13.4,68.3,68.3,0,0,0,12.12-18.4A24.56,24.56,0,0,1,499.89,765.21Z"/><path class="cls-5" d="M302,648.7l-24.41-21.54a7,7,0,0,1,2.4-11.88l30.86-10.37a7,7,0,0,1,9.09,8l-6.45,31.9A7,7,0,0,1,302,648.7Z"/><path class="cls-5" d="M389.26,648.7l24.4-21.54a7,7,0,0,0-2.4-11.88l-30.85-10.37a7,7,0,0,0-9.09,8l6.44,31.9A7,7,0,0,0,389.26,648.7Z"/><path class="cls-4" d="M344.86,418.35h0Z"/><path class="cls-4" d="M486,292.85c-7.48-71.87-63.37-125.3-141.58-125.49-78.21.19-134.1,53.62-141.59,125.49-9.47,90.91,14.95,125.43,141.59,125.5S495.5,383.76,486,292.85Z"/><path class="cls-4" d="M344,167.35h0Z"/><path class="cls-5" d="M302,217.7l-24.41-21.54a7,7,0,0,1,2.4-11.88l30.86-10.37a7,7,0,0,1,9.09,8l-6.45,31.9A7,7,0,0,1,302,217.7Z"/><path class="cls-5" d="M389.26,217.7l24.4-21.54a7,7,0,0,0-2.4-11.88l-30.85-10.37a7,7,0,0,0-9.09,8l6.44,31.9A7,7,0,0,0,389.26,217.7Z"/><path class="cls-3" d="M534.42,247.68C518.36,139.85,418.36,77.44,345.36,77.85c-88,.5-175,63-189,169.83-16.18,123,48.05,170.48,189.05,170.33C488.36,417.85,552.69,370.35,534.42,247.68Zm-189,166.67c-126.63-.07-151.06-34.59-141.59-125.5,1.93-18.46,5.78-37.24,14.17-53.93,7.66-15.23,20.56-30.34,37.81-34.86,9.28-2.43,18,.36,27.25-.19,10.55-.62,20.45-4.37,29.34-10,10.36-6.5,20.69-14.23,33.44-14.56,11.48-.29,22,6,31.17,12.22,9.43,6.43,21.37,11.93,32.86,13,5.8.55,11.75-.81,17.51-1.37,14.93-1.47,25.77,8.92,33.58,20.32,14.71,21.47,23,46.86,26.2,72.57a230.11,230.11,0,0,1,1.67,27.77c0,23.13-3.74,48-20.82,65-19.68,19.64-50.12,24.86-76.62,27.45-15.27,1.5-30.63,2-46,2h0Z"/><path class="cls-3" d="M535.42,680.68C519.36,572.85,419.36,510.44,346.36,510.85c-88,.5-175,63-189,169.83-16.18,123,20,170.22,189.05,170.33C515.46,850.9,553.69,803.35,535.42,680.68Zm-25.23,72.59A55.14,55.14,0,0,1,490.36,760a23,23,0,0,0,9.53,4.19,24.56,24.56,0,0,0,14-1.71,68.3,68.3,0,0,1-12.12,18.4,56.94,56.94,0,0,1-18.46,13.4,13.09,13.09,0,0,0,4.55,3,13.26,13.26,0,0,0,8.25.26C482,819.29,459,832.36,434.42,839.12c-27.38,7.51-56.69,9.2-85.06,9.67v.06l-2.27,0-2.27,0v-.06c-28.36-.47-57.68-2.16-85.06-9.67-24.6-6.76-47.55-19.83-61.67-41.61a13.26,13.26,0,0,0,8.25-.26,13.09,13.09,0,0,0,4.55-3,56.94,56.94,0,0,1-18.46-13.4,68.3,68.3,0,0,1-12.12-18.4,24.5,24.5,0,0,0,14,1.71,23,23,0,0,0,9.54-4.19A55.08,55.08,0,0,1,184,753.27,67,67,0,0,1,165.82,738a37.1,37.1,0,0,0,16-5.07,39.32,39.32,0,0,0,10.05-8.66c10.63-12.2,15.94-18.3,21.5-28.41,8.25-15,9.95-32.51,18.39-47.4,5.07-9,12.72-16.92,22.13-21.29,11.4-5.29,24.1-3,36.17-4.74,25.14-3.58,43.71-32,70.93-21.86,7.38,2.75,13.93,7.3,20.58,11.52s13.68,8.21,21.43,9.62c9.88,1.79,20-.72,29.88,1.31,15.26,3.13,28.05,16.56,36.33,29.1,7.62,11.53,13.08,24.6,17.39,37.69,4,12.07,7.5,24.47,15.74,34.46a37.37,37.37,0,0,0,26,13.73A66.89,66.89,0,0,1,510.19,753.27Z"/><ellipse class="cls-6" cx="300.61" cy="124.1" rx="12" ry="11"/><ellipse class="cls-6" cx="391.54" cy="124.1" rx="12" ry="11"/><circle cx="275.36" cy="298.85" r="34.5"/><circle class="cls-7" cx="263.35" cy="289.19" r="9.67"/><circle class="cls-7" cx="275.65" cy="306.77" r="4.39"/><circle cx="416.36" cy="298.85" r="34.5"/><circle class="cls-7" cx="404.35" cy="289.19" r="9.67"/><circle class="cls-7" cx="416.65" cy="306.77" r="4.39"/><path d="M293.71,161.1c3-2.46,5.88-5,9-7.51a60,60,0,0,1,4.94-3.41,43.34,43.34,0,0,1,5.49-2.76,48.19,48.19,0,0,1,5.93-2,18.1,18.1,0,0,1,6.3-.56,24.36,24.36,0,0,1,6.06,1.31,19,19,0,0,1,5.5,2.94l-.15.58c-2.08.4-4,.58-5.92.77s-3.77.31-5.55.45-3.52.22-5.3.31a25,25,0,0,0-5.34.77,50.89,50.89,0,0,0-10.36,4.16c-3.44,1.7-6.74,3.82-10.3,5.51Z"/><path d="M396.71,161.61c-3.56-1.69-6.87-3.81-10.3-5.51a50.89,50.89,0,0,0-10.36-4.16,25,25,0,0,0-5.34-.77c-1.79-.09-3.53-.16-5.3-.31s-3.66-.27-5.55-.45-3.84-.37-5.92-.77l-.15-.58a19,19,0,0,1,5.5-2.94,24.36,24.36,0,0,1,6.06-1.31,18,18,0,0,1,6.29.56,48.34,48.34,0,0,1,5.94,2,42.55,42.55,0,0,1,5.48,2.76c1.73,1.06,3.37,2.21,4.95,3.41,3.13,2.46,6,5,9,7.51Z"/><path class="cls-6" d="M346.23,334c3.11-.27,5.88-2.13,8-4.28s4.32-4.73,4.86-7.79c.09-.54.08-1.2-.54-1.4a41,41,0,0,0-25.39-.26l-.4.12c-1.63.52-1.36,2.18-.81,3.44a19.73,19.73,0,0,0,2.89,4.52c2.63,3.18,6.74,5.88,11,5.68Z"/><path d="M317.71,333.86a19.93,19.93,0,0,0,2.2,4.82,15.39,15.39,0,0,0,3.15,3.56,11.63,11.63,0,0,0,3.68,2,8,8,0,0,0,3.62.35,11.42,11.42,0,0,0,6.25-3,12.18,12.18,0,0,0,3.45-5.84,6.27,6.27,0,0,1,12.2.22l.06.3a11.17,11.17,0,0,0,1.13,3.23,11.09,11.09,0,0,0,8.27,5.83,8.13,8.13,0,0,0,3.6-.42,11.48,11.48,0,0,0,3.65-2.17,16.35,16.35,0,0,0,5-8.84l0-.11a.34.34,0,0,1,.41-.25.32.32,0,0,1,.26.29,16.28,16.28,0,0,1-2.71,11,14.44,14.44,0,0,1-4.19,4.05,13.17,13.17,0,0,1-5.53,1.93,15.19,15.19,0,0,1-11-3.43,16.49,16.49,0,0,1-5.86-9.94l1.35.06a17.11,17.11,0,0,1-6.26,9.26,15.49,15.49,0,0,1-10.69,3.13,13.71,13.71,0,0,1-9.58-5.54A16.87,16.87,0,0,1,317,333.85a.35.35,0,0,1,.36-.33.32.32,0,0,1,.31.24Z"/><ellipse class="cls-6" cx="301.61" cy="561.1" rx="12" ry="11"/><ellipse class="cls-6" cx="392.54" cy="561.1" rx="12" ry="11"/><circle cx="275.36" cy="729.85" r="34.5"/><circle class="cls-7" cx="263.35" cy="720.19" r="9.67"/><circle class="cls-7" cx="275.65" cy="737.77" r="4.39"/><circle cx="416.36" cy="729.85" r="34.5"/><circle class="cls-7" cx="404.35" cy="720.19" r="9.67"/><circle class="cls-7" cx="416.65" cy="737.77" r="4.39"/><path d="M293.71,592.1c3-2.46,5.88-5.05,9-7.51a60,60,0,0,1,4.94-3.41,43.34,43.34,0,0,1,5.49-2.76,48.19,48.19,0,0,1,5.93-2,18.1,18.1,0,0,1,6.3-.56,24.36,24.36,0,0,1,6.06,1.31,19,19,0,0,1,5.5,2.94l-.15.58c-2.08.4-4,.58-5.92.77s-3.77.31-5.55.45-3.52.22-5.3.31a25,25,0,0,0-5.34.77,50.89,50.89,0,0,0-10.36,4.16c-3.44,1.7-6.74,3.82-10.3,5.51Z"/><path d="M396.71,592.61c-3.56-1.69-6.87-3.81-10.3-5.51a50.89,50.89,0,0,0-10.36-4.16,25,25,0,0,0-5.34-.77c-1.79-.09-3.53-.16-5.3-.31s-3.66-.27-5.55-.45-3.84-.37-5.92-.77l-.15-.58a19,19,0,0,1,5.5-2.94,24.36,24.36,0,0,1,6.06-1.31,18,18,0,0,1,6.29.56,48.34,48.34,0,0,1,5.94,2,42.55,42.55,0,0,1,5.48,2.76c1.73,1.06,3.37,2.21,4.95,3.41,3.13,2.46,6,5,9,7.51Z"/><path class="cls-6" d="M346.23,765c3.11-.27,5.88-2.13,8-4.28s4.32-4.73,4.86-7.79c.09-.54.08-1.2-.54-1.4a41,41,0,0,0-25.39-.26l-.4.12c-1.63.52-1.36,2.18-.81,3.44a19.73,19.73,0,0,0,2.89,4.52c2.63,3.18,6.74,5.88,11,5.68Z"/><path d="M317.71,764.86a19.93,19.93,0,0,0,2.2,4.82,15.39,15.39,0,0,0,3.15,3.56,11.63,11.63,0,0,0,3.68,2,8,8,0,0,0,3.62.35,11.42,11.42,0,0,0,6.25-3,12.18,12.18,0,0,0,3.45-5.84,6.27,6.27,0,0,1,12.2.22l.06.3a11.17,11.17,0,0,0,1.13,3.23,11.09,11.09,0,0,0,8.27,5.83,8.13,8.13,0,0,0,3.6-.42,11.48,11.48,0,0,0,3.65-2.17,16.35,16.35,0,0,0,5-8.84l0-.11a.34.34,0,0,1,.41-.25.32.32,0,0,1,.26.29,16.28,16.28,0,0,1-2.71,11,14.44,14.44,0,0,1-4.19,4,13.17,13.17,0,0,1-5.53,1.93,15.19,15.19,0,0,1-11-3.43,16.49,16.49,0,0,1-5.86-9.94l1.35.06a17.11,17.11,0,0,1-6.26,9.26,15.49,15.49,0,0,1-10.69,3.13,13.71,13.71,0,0,1-9.58-5.54A16.87,16.87,0,0,1,317,764.85a.35.35,0,0,1,.36-.33.32.32,0,0,1,.31.24Z"/><path class="cls-1" d="M254.16,485.49a1.58,1.58,0,0,1,.47.55c.43.82.69,1.77,1.05,2.63q1.27,3,2.79,5.93A80.67,80.67,0,0,0,267.18,508a86.81,86.81,0,0,0,20.35,18.17c3.59,2.37-6.17,10.48-7.86,11.69a31.49,31.49,0,0,1-16.25,5.86,29,29,0,0,1-10.59-1.25c-4.83-1.52-5-8.08-5.75-12.29-2.42-14-1.07-28.39,2.7-42l.06-.21.27-.94A2.6,2.6,0,0,1,254.16,485.49Z"/><path class="cls-1" d="M439,485.49a1.58,1.58,0,0,0-.47.55c-.43.82-.7,1.77-1.06,2.63-.85,2-1.77,4-2.78,5.93A82,82,0,0,1,426,508a86.65,86.65,0,0,1-20.36,18.17c-3.58,2.37,6.17,10.48,7.86,11.69a31.5,31.5,0,0,0,16.26,5.86,29,29,0,0,0,10.59-1.25c4.82-1.52,5-8.08,5.75-12.29,2.41-14,1.06-28.39-2.71-42l-.06-.21c-.09-.31-.17-.63-.26-.94A2.6,2.6,0,0,0,439,485.49Z"/><path class="cls-1" d="M255.16,54.49a1.58,1.58,0,0,1,.47.55c.43.82.69,1.77,1.05,2.63q1.27,3,2.79,5.93A80.67,80.67,0,0,0,268.18,77a86.81,86.81,0,0,0,20.35,18.17c3.59,2.37-6.17,10.48-7.86,11.69a31.49,31.49,0,0,1-16.25,5.86,29,29,0,0,1-10.59-1.25c-4.83-1.52-5-8.08-5.75-12.29-2.42-14-1.07-28.39,2.7-42l.06-.21.27-.94A2.6,2.6,0,0,1,255.16,54.49Z"/><path class="cls-1" d="M440,54.49a1.58,1.58,0,0,0-.47.55c-.43.82-.7,1.77-1.06,2.63-.85,2-1.77,4-2.78,5.93A82,82,0,0,1,427,77a86.65,86.65,0,0,1-20.36,18.17c-3.58,2.37,6.17,10.48,7.86,11.69a31.5,31.5,0,0,0,16.26,5.86,29,29,0,0,0,10.59-1.25c4.82-1.52,5-8.08,5.75-12.29,2.41-14,1.06-28.39-2.71-42l-.06-.21c-.09-.31-.17-.63-.26-.94A2.6,2.6,0,0,0,440,54.49Z"/></g></g></svg>