<svg xmlns="http://www.w3.org/2000/svg" viewBox="0 0 212.35 192.23"><title>Recurso 1</title><g id="Capa_2" data-name="Capa 2"><g id="Capa_1-2" data-name="Capa 1"><path d="M212.35,96.25l-41.09,41.13-14.8-14.74,16.33-15.51H75.29V85.51h96.09L155.32,70.15,171,54.6Z"/><path d="M139.08,149.49v20.83h-117V21.91h117V42.74H160.2c0-7.76.38-15.23-.08-22.65C159.37,8.25,150.52.22,138.69.21,100.37.17,62.05.51,23.74,0,11.52-.16-.14,8.49,0,23.68.23,47.79.13,71.89.08,96h0v.23h0c.05,24.11.15,48.22-.08,72.32-.14,15.2,11.52,23.84,23.74,23.68,38.31-.51,76.63-.16,115-.21,11.83,0,20.68-8,21.43-19.88.46-7.42.08-14.89.08-22.65Z"/></g></g></svg>