<svg xmlns="http://www.w3.org/2000/svg" viewBox="0 0 147.91 147.9"><defs><style>.cls-1{fill:red;}</style></defs><title>searchh</title><g id="Capa_2" data-name="Capa 2"><g id="Capa_1-2" data-name="Capa 1"><g id="Capa_1-2-2" data-name="Capa 1-2"><path class="cls-1" d="M58.55,117.9C26,117.84-.09,91.31,0,58.46.09,26.29,26.73,0,59.13,0,91.87,0,118,26.64,117.9,59.79,117.79,91.94,91.22,118,58.55,117.9Zm.23-16C82.24,102,101.85,82.51,101.89,59a43.26,43.26,0,0,0-43-43A43.27,43.27,0,0,0,16,58.69c-.19,23.39,19.31,43.12,42.78,43.23Z"/><path class="cls-1" d="M99.08,111.43l13.64-12.29c1.89,1.81,4.75,4.49,7.55,7.23q12.17,11.86,24.28,23.76c4.21,4.14,4.49,7.06.7,11.59a27.14,27.14,0,0,1-6,5.1c-2.67,1.73-5.34,1.38-7.64-1.06C120.83,134.38,110.06,123,99.08,111.43Z"/><path class="cls-1" d="M26,58.54c.79-12.21,6.22-21.2,15.35-28,1.14-.84,3.37-.2,5.09-.24C46,32,46,34.11,45,35.39c-2.36,3-5.55,5.3-7.79,8.34a24.65,24.65,0,0,0-4.44,18.44c.19,1.45-1.44,3.13-2.23,4.71-1.24-1.19-2.89-2.18-3.62-3.63S26.16,59.73,26,58.54Z"/></g></g></g></svg>