<svg xmlns="http://www.w3.org/2000/svg" viewBox="0 0 120 120"><defs><style>.cls-1,.cls-2{fill:none;stroke:#f2453d;}.cls-1{stroke-width:4px;}.cls-2{stroke-miterlimit:10;stroke-width:3px;}</style></defs><title>tb</title><g id="Capa_2" data-name="Capa 2"><g id="Capa_1-2" data-name="Capa 1"><circle class="cls-1" cx="60" cy="60" r="58"/><path class="cls-2" d="M26,81.63a28.7,28.7,0,0,0,20.47-5.72,14.25,14.25,0,0,1-13-9.64A15.68,15.68,0,0,0,39.72,66a14.18,14.18,0,0,1-8-4.91,13.79,13.79,0,0,1-3.08-8.83,15.22,15.22,0,0,0,6.26,1.69,14,14,0,0,1-5.8-8.45,13.65,13.65,0,0,1,1.54-10A40.1,40.1,0,0,0,59.41,49.93c0-.91-.2-1.72-.23-2.57A13.9,13.9,0,0,1,72.61,33a14.38,14.38,0,0,1,2.85.19A13.61,13.61,0,0,1,82.86,37a1.05,1.05,0,0,0,1.08.29,29.6,29.6,0,0,0,7.51-2.82l.65-.36a10.94,10.94,0,0,1-2.23,4.22c-1.05,1.17-2.22,2.21-3.44,3.38,1.28-.26,2.53-.49,3.77-.81s2.39-.81,3.8-1.27a18.94,18.94,0,0,1-1.61,2.08c-1.57,1.59-3.21,3.09-4.78,4.61a1.3,1.3,0,0,0-.46,1A40.09,40.09,0,0,1,74.41,77.67,36.57,36.57,0,0,1,55,87.31a40.83,40.83,0,0,1-21.46-1.78A38.16,38.16,0,0,1,26.39,82Z"/></g></g></svg>